<?xml version="1.0" encoding="UTF-8" standalone="no"?>
<!DOCTYPE svg PUBLIC "-//W3C//DTD SVG 1.1//EN"
 "http://www.w3.org/Graphics/SVG/1.1/DTD/svg11.dtd">
<!-- Generated by graphviz version 2.38.0 (20140413.2041)
 -->
<!-- Title: G Pages: 1 -->
<svg width="158pt" height="366pt"
 viewBox="0.00 0.00 158.00 366.00" xmlns="http://www.w3.org/2000/svg" xmlns:xlink="http://www.w3.org/1999/xlink">
<g id="graph0" class="graph" transform="scale(1 1) rotate(0) translate(4 362)">
<title>G</title>
<polygon fill="white" stroke="none" points="-4,4 -4,-362 154,-362 154,4 -4,4"/>
<g id="clust1" class="cluster"><title>cluster_Global</title>
<path fill="none" stroke="gray" d="M20,-8C20,-8 130,-8 130,-8 136,-8 142,-14 142,-20 142,-20 142,-338 142,-338 142,-344 136,-350 130,-350 130,-350 20,-350 20,-350 14,-350 8,-344 8,-338 8,-338 8,-20 8,-20 8,-14 14,-8 20,-8"/>
<text text-anchor="middle" x="75" y="-337.2" font-family="Times,serif" font-size="11.00" fill="gray">Global</text>
</g>
<!-- \\User -->
<g id="node1" class="node"><title>\\User</title>
<polygon fill="none" stroke="black" points="102,-322 48,-322 48,-286 102,-286 102,-322"/>
<text text-anchor="middle" x="75" y="-301.2" font-family="Courier,monospace" font-size="11.00">User</text>
</g>
<!-- \\FractalsManager -->
<g id="node2" class="node"><title>\\FractalsManager</title>
<polygon fill="none" stroke="black" points="134,-268 16,-268 16,-232 134,-232 134,-268"/>
<text text-anchor="middle" x="75" y="-247.2" font-family="Courier,monospace" font-size="11.00">FractalsManager</text>
</g>
<!-- \\UsersManager -->
<g id="node3" class="node"><title>\\UsersManager</title>
<polygon fill="none" stroke="black" points="124,-214 26,-214 26,-178 124,-178 124,-214"/>
<text text-anchor="middle" x="75" y="-193.2" font-family="Courier,monospace" font-size="11.00">UsersManager</text>
</g>
<!-- \\Comment -->
<g id="node4" class="node"><title>\\Comment</title>
<polygon fill="none" stroke="black" points="107,-160 43,-160 43,-124 107,-124 107,-160"/>
<text text-anchor="middle" x="75" y="-139.2" font-family="Courier,monospace" font-size="11.00">Comment</text>
</g>
<!-- \\Fractal -->
<g id="node5" class="node"><title>\\Fractal</title>
<polygon fill="none" stroke="black" points="107,-106 43,-106 43,-70 107,-70 107,-106"/>
<text text-anchor="middle" x="75" y="-85.2" font-family="Courier,monospace" font-size="11.00">Fractal</text>
</g>
<!-- \\CommentsManager -->
<g id="node6" class="node"><title>\\CommentsManager</title>
<polygon fill="none" stroke="black" points="134,-52 16,-52 16,-16 134,-16 134,-52"/>
<text text-anchor="middle" x="75" y="-31.2" font-family="Courier,monospace" font-size="11.00">CommentsManager</text>
</g>
</g>
</svg>
